#!OML:ASF I:\golf\golf\golf 2\Subject 1\2002-09-07\Subject1.ASF
:FULLY-SPECIFIED
:DEGREES
181
root 0.887444 17.8973 -6.4147 15.4416 6.61288 -6.40848
lowerback 8.57123 4.40759 -2.7645
upperback 6.37855 5.66013 4.00798
thorax 1.17205 2.68565 5.26442
lowerneck -14.4038 -3.00707 -0.544124
upperneck 38.4631 -2.2352 -4.61284
head 16.0576 -1.53492 -2.26751
rclavicle -6.2816e-014 2.0276e-014
rhumerus -11.4186 6.53207 -80.8374
rradius 33.2274
rwrist -9.24202
rhand -21.1633 14.1797
rfingers 7.12502
rthumb 5.21665 -15.7361
lclavicle -6.2816e-014 2.0276e-014
lhumerus -38.923 -28.3526 99.516
lradius 60.3739
lwrist 15.9577
lhand -10.5626 27.6734
lfingers 7.12502
lthumb 15.4418 57.0766
rfemur -42.0674 -4.68866 23.6914
rtibia 25.4161
rfoot -7.1293 -5.06871
rtoes -13.6575
lfemur -25.2261 0.27957 -13.6361
ltibia 33.5026
lfoot -21.018 -4.61979
ltoes 0.789267
182
root 0.861561 17.8984 -6.38257 15.7611 6.99021 -6.33767
lowerback 8.82245 4.38548 -2.68352
upperback 6.52353 5.62998 4.09109
thorax 1.18922 2.66847 5.2975
lowerneck -14.5645 -3.07234 -0.6848
upperneck 38.3233 -2.33192 -4.49723
head 16.0274 -1.57914 -2.20664
rclavicle -8.98507e-014 -4.45278e-014
rhumerus -10.7712 6.69267 -80.5909
rradius 33.2104
rwrist -9.23044
rhand -20.9794 14.2144
rfingers 7.12502
rthumb 5.39421 -15.6969
lclavicle -8.98507e-014 -4.45278e-014
lhumerus -39.1765 -28.7197 99.8487
lradius 60.9517
lwrist 15.9449
lhand -11.2404 27.2672
lfingers 7.12502
lthumb 14.7889 56.7196
rfemur -42.5235 -4.31514 23.5704
rtibia 24.9221
rfoot -7.06054 -5.24293
rtoes -14.3919
lfemur -25.5093 0.432989 -13.5859
ltibia 33.3454
lfoot -21.0024 -5.17094
ltoes 1.25647
183
root 0.834578 17.9009 -6.34792 16.076 7.35084 -6.1284
lowerback 9.04171 4.44616 -2.55198
upperback 6.67848 5.71215 3.98223
thorax 1.24507 2.71081 5.0935
lowerneck -14.5992 -3.14036 -0.455281
upperneck 38.0999 -2.53909 -4.41981
head 15.9081 -1.62078 -2.23925
rclavicle 2.06736e-014 -4.13472e-014
rhumerus -10.163 6.31981 -80.5451
rradius 33.1424
rwrist -9.10907
rhand -20.904 14.1769
rfingers 7.12502
rthumb 5.46699 -15.7325
lclavicle 2.06736e-014 -4.13472e-014
lhumerus -39.3781 -29.3923 99.9915
lradius 61.404
lwrist 15.7894
lhand -11.7351 26.7423
lfingers 7.12502
lthumb 14.3122 56.2291
rfemur -42.9408 -4.09308 23.3581
rtibia 24.4648
rfoot -7.3801 -5.08904
rtoes -13.3279
lfemur -25.776 0.611094 -13.6979
ltibia 33.227
lfoot -20.9924 -5.68456
ltoes 1.26885
184
root 0.805297 17.8995 -6.31462 16.415 7.78253 -5.90062
lowerback 9.27625 4.48486 -2.47655
upperback 6.80556 5.76262 3.91486
thorax 1.25851 2.73675 4.96467
lowerneck -14.499 -3.29093 -0.269179
upperneck 37.7957 -2.82656 -4.42248
head 15.7128 -1.71402 -2.3044
rclavicle -5.80451e-014 -1.90833e-014
rhumerus -9.60634 5.9055 -80.5002
rradius 33.087
rwrist -8.88723
rhand -20.9361 14.1132
rfingers 7.12502
rthumb 5.43603 -15.7971
lclavicle -5.80451e-014 -1.90833e-014
lhumerus -39.5778 -29.9839 100.165
lradius 61.7905
lwrist 15.5279
lhand -12.2387 26.4194
lfingers 7.12502
lthumb 13.827 55.9398
rfemur -43.3722 -3.88401 23.1149
rtibia 24.0666
rfoot -7.68655 -4.96245
rtoes -11.6484
lfemur -26.104 0.616948 -13.781
ltibia 33.1431
lfoot -20.9531 -6.11838
ltoes 1.59814
185
root 0.776117 17.8948 -6.28186 16.8211 8.22328 -5.71468
lowerback 9.36406 4.48512 -2.62227
upperback 6.98565 5.7504 4.09375
thorax 1.3708 2.71812 5.23767
lowerneck -14.4659 -3.45474 -0.421284
upperneck 37.4839 -2.99547 -4.50188
head 15.5455 -1.81687 -2.324
rclavicle -3.18055e-015 -1.82882e-014
rhumerus -8.92891 5.94499 -80.1288
rradius 33.0485
rwrist -8.87996
rhand -21.0728 14.3304
rfingers 7.12502
rthumb 5.3041 -15.5832
lclavicle -3.18055e-015 -1.82882e-014
lhumerus -39.6485 -30.1638 100.518
lradius 62.1133
lwrist 15.2002
lhand -12.6823 26.2002
lfingers 7.12502
lthumb 13.3994 55.7493
rfemur -43.8741 -3.61869 22.888
rtibia 23.7429
rfoot -7.68526 -4.93572
rtoes -11.2061
lfemur -26.5184 0.53853 -13.7976
ltibia 33.0767
lfoot -20.9349 -6.44901
ltoes 1.59894
186
root 0.745157 17.8886 -6.24598 17.2742 8.68367 -5.45857
lowerback 9.55151 4.52432 -2.75215
upperback 7.05767 5.79023 4.18345
thorax 1.31978 2.73252 5.38959
lowerneck -14.4363 -3.6297 -0.392381
upperneck 37.2585 -3.23806 -4.57305
head 15.415 -1.92272 -2.38727
rclavicle -1.82882e-014 -5.24792e-014
rhumerus -8.45934 5.91194 -79.809
rradius 33.1064
rwrist -8.94903
rhand -21.2236 14.272
rfingers 7.12502
rthumb 5.15847 -15.6453
lclavicle -1.82882e-014 -5.24792e-014
lhumerus -39.8408 -30.4465 100.83
lradius 62.3743
lwrist 14.8838
lhand -13.2308 25.4116
lfingers 7.12502
lthumb 12.8707 54.9947
rfemur -44.4135 -3.37744 22.5942
rtibia 23.4806
rfoot -7.62135 -4.84178
rtoes -11.5716
lfemur -26.9564 0.395973 -13.8666
ltibia 33.0209
lfoot -20.9904 -6.69445
ltoes 1.24189
